<?xml version="1.0" standalone="no"?>
<!DOCTYPE svg PUBLIC "-//W3C//DTD SVG 20010904//EN"
 "http://www.w3.org/TR/2001/REC-SVG-20010904/DTD/svg10.dtd">
<svg version="1.0" xmlns="http://www.w3.org/2000/svg"
 width="59.000000pt" height="60.000000pt" viewBox="0 0 59.000000 60.000000"
 preserveAspectRatio="xMidYMid meet">
<metadata>
Created by potrace 1.10, written by Peter Selinger 2001-2011
</metadata>
<g transform="translate(0.000000,60.000000) scale(0.100000,-0.100000)"
fill="currentColor" stroke="none">
<path d="M190 446 c-13 -17 -10 -61 5 -61 6 0 11 10 13 23 3 22 6 22 138 22
l134 0 0 -89 c0 -84 -1 -90 -22 -93 -35 -5 -34 -28 1 -28 42 0 51 22 51 129 0
79 -2 92 -19 101 -11 5 -80 10 -154 10 -105 0 -137 -3 -147 -14z"/>
<path d="M67 334 c-4 -4 -7 -56 -7 -115 0 -88 3 -108 16 -113 9 -3 78 -6 154
-6 105 0 140 3 149 14 8 9 11 50 9 117 l-3 104 -156 3 c-85 1 -158 -1 -162 -4z
m293 -114 l0 -90 -140 0 -140 0 0 90 0 90 140 0 140 0 0 -90z"/>
<path d="M196 254 c-39 -38 6 -100 54 -74 26 14 32 40 15 66 -18 28 -47 31
-69 8z m54 -29 c0 -19 -20 -29 -32 -17 -15 15 -2 43 17 36 8 -3 15 -12 15 -19z"/>
</g>
</svg>
